<?xml version="1.0" encoding="iso-8859-1"?>
<!-- Uploaded to: SVG Repo, www.svgrepo.com, Generator: SVG Repo Mixer Tools -->
<svg height="800px" width="800px" version="1.1" id="Layer_1" xmlns="http://www.w3.org/2000/svg" xmlns:xlink="http://www.w3.org/1999/xlink" 
	 viewBox="0 0 512 512" xml:space="preserve">
<path style="fill:#EFEFEF;" d="M163.381,194.157v82.116c-44.098,18.948-99.444,18.948-143.542,0v-82.116
	c0-0.687,0.01-1.364,0.031-2.051c0.533,7.351,8.459,13.985,20.988,18.835c12.991,5.024,30.933,8.131,50.752,8.131
	c38.951,0,70.643-11.996,71.74-26.965C163.371,192.794,163.381,193.471,163.381,194.157z"/>
<path style="fill:#EB4E49;" d="M19.87,192.106c1.087-38.684,32.789-69.72,71.74-69.72c19.819,0,37.762,8.038,50.752,21.019
	c12.529,12.539,20.455,29.703,20.988,48.702c-1.097,14.969-32.789,26.965-71.74,26.965c-19.819,0-37.762-3.107-50.752-8.131
	C28.329,206.091,20.403,199.458,19.87,192.106z"/>
<path style="fill:#EFEFEF;" d="M163.381,428.919v1.056c0,39.638-32.133,71.771-71.771,71.771S19.84,469.613,19.84,429.975v-1.056
	C63.938,447.857,119.283,447.857,163.381,428.919z"/>
<path style="fill:#EB4E49;" d="M163.381,276.274V428.92c-44.098,18.937-99.444,18.937-143.542,0V276.274
	C63.938,295.221,119.283,295.221,163.381,276.274z"/>
<path style="fill:#EFEFEF;" d="M353.348,194.157v82.116c-44.098,18.948-99.444,18.948-143.542,0v-82.116
	c0-0.687,0.01-1.364,0.031-2.051c0.533,7.351,8.459,13.985,20.988,18.835c12.991,5.024,30.933,8.131,50.752,8.131
	c38.951,0,70.643-11.996,71.74-26.965C353.338,192.794,353.348,193.471,353.348,194.157z"/>
<path style="fill:#EB4E49;" d="M209.837,192.106c1.087-38.684,32.789-69.72,71.74-69.72c19.819,0,37.762,8.038,50.752,21.019
	c12.529,12.539,20.455,29.703,20.988,48.702c-1.097,14.969-32.789,26.965-71.74,26.965c-19.819,0-37.762-3.107-50.752-8.131
	C218.296,206.091,210.371,199.458,209.837,192.106z"/>
<path style="fill:#EFEFEF;" d="M353.348,428.919v1.056c0,39.638-32.133,71.771-71.771,71.771s-71.771-32.133-71.771-71.771v-1.056
	C253.905,447.857,309.25,447.857,353.348,428.919z"/>
<path style="fill:#EB4E49;" d="M353.348,276.274V428.92c-44.098,18.937-99.444,18.937-143.542,0V276.274
	C253.905,295.221,309.25,295.221,353.348,276.274z"/>
<path style="fill:#EFEFEF;" d="M112.116,143.542v-40.67c0-22.273,18.055-40.328,40.328-40.328h108.624v80.999
	c0,11.325,9.181,20.506,20.506,20.506l0,0c11.325,0,20.506-9.181,20.506-20.506V62.543h79.86c22.273,0,40.328,18.056,40.328,40.328
	v141.513c0,11.119,8.646,20.589,19.759,20.984c11.666,0.414,21.253-8.919,21.253-20.493V102.871c0-44.922-36.418-81.34-81.34-81.34
	H152.444c-44.922,0-81.34,36.418-81.34,81.34v40.67c0,11.325,9.181,20.506,20.506,20.506l0,0
	C102.936,164.048,112.116,154.867,112.116,143.542z"/>
<circle style="fill:#FBA026;" cx="189.014" cy="42.037" r="31.784"/>
<path style="fill:#FAC51C;" d="M475.849,240.586h-64.781c-9.008,0-16.31,7.303-16.31,16.311v18.643
	c0,9.008,7.302,16.311,16.31,16.311h6.759v26.161c0,9.008,7.302,16.311,16.31,16.311h18.643c9.008,0,16.311-7.303,16.311-16.311
	v-26.163h6.758c9.008,0,16.311-7.303,16.311-16.311v-18.643C492.16,247.889,484.857,240.586,475.849,240.586z"/>
<g>
	<path style="fill:#231F20;" d="M475.849,230.333h-2.315V102.871c0-50.504-41.088-91.593-91.593-91.593H217.626
		C210.116,4.288,200.058,0,189.014,0c-11.045,0-21.102,4.288-28.612,11.278h-7.957c-50.505,0-91.593,41.089-91.593,91.593V118.1
		c-9.746,3.937-18.729,9.761-26.465,17.296c-15.359,14.96-24.152,34.984-24.763,56.384c0,0.004-0.001,0.008-0.001,0.013
		c0,0.003,0,0.006,0,0.009c0,0.005-0.001,0.011-0.001,0.016c0,0.005,0,0.01,0,0.016c-0.024,0.777-0.036,1.544-0.036,2.322v235.819
		C9.585,475.204,46.381,512,91.609,512s82.024-36.796,82.024-82.024V194.158c0-0.688-0.058-3.977-0.149-4.523
		c-1.099-20.186-9.512-39.106-23.876-53.483c-7.917-7.912-17.168-14.001-27.24-18.07v-15.211
		c0.001-16.583,13.493-30.075,30.076-30.075h7.957c7.509,6.99,17.567,11.278,28.612,11.278c11.045,0,21.102-4.288,28.612-11.278
		h33.191v45.305c-9.745,3.937-18.726,9.76-26.462,17.294c-14.842,14.457-23.53,33.645-24.651,54.232
		c-0.09,0.548-0.15,3.85-0.15,4.53v235.819c0,45.228,36.796,82.024,82.024,82.024s82.024-36.796,82.024-82.024V194.157
		c0-0.687-0.058-3.976-0.148-4.521c-1.099-20.186-9.512-39.107-23.876-53.485c-7.918-7.912-17.17-14.001-27.243-18.07V72.796h69.608
		c16.583,0,30.075,13.492,30.075,30.075v127.462h-0.948c-14.647,0-26.563,11.917-26.563,26.564v18.643
		c0,13.463,10.067,24.619,23.069,26.336v16.137c0,14.647,11.916,26.564,26.563,26.564h18.643c14.647,0,26.564-11.917,26.564-26.564
		v-16.137c13.003-1.716,23.069-12.873,23.069-26.336v-18.643C502.413,242.25,490.496,230.333,475.849,230.333z M153.128,315.487
		c-38.537,14.607-84.499,14.607-123.036,0v-24.384c39.073,12.881,83.963,12.881,123.036,0V315.487z M30.092,337.236
		c19.538,6.44,40.526,9.67,61.518,9.67s41.98-3.23,61.518-9.67v84.769c-38.535,14.599-84.501,14.599-123.036,0
		C30.092,422.004,30.092,337.236,30.092,337.236z M153.128,217.452v51.891c-38.539,14.609-84.497,14.609-123.036,0v-51.95
		l-0.001-0.005c2.138,1.072,4.484,2.115,7.068,3.116c14.709,5.688,34.046,8.821,54.45,8.821
		C113.687,229.325,137.017,225.511,153.128,217.452L153.128,217.452z M91.61,491.494c-28.993,0-53.367-20.162-59.836-47.202
		l-0.006-0.018c19.06,6.077,39.448,9.129,59.843,9.129s40.782-3.053,59.843-9.129l-0.006,0.018
		C144.977,471.332,120.604,491.494,91.61,491.494z M135.11,150.652c10.973,10.982,17.334,25.496,17.964,40.947
		c-0.424,1.362-3.591,5.707-15.013,10.009c-12.345,4.651-28.841,7.211-46.451,7.211c-17.677,0-34.828-2.712-47.051-7.439
		c-10.957-4.242-14-8.456-14.414-9.777c0.888-21.948,12.973-40.689,30.705-50.841v2.78c0,16.96,13.798,30.759,30.759,30.759
		s30.759-13.798,30.759-30.759v-2.662C126.965,143.54,131.252,146.798,135.11,150.652z M101.863,102.871v40.67
		c0,5.654-4.599,10.253-10.253,10.253s-10.253-4.599-10.253-10.253v-40.67c0-37.777,29.623-68.753,66.858-70.951
		c-0.804,3.242-1.239,6.629-1.239,10.117c0,3.602,0.456,7.099,1.313,10.438C122.338,54.597,101.863,76.382,101.863,102.871z
		 M167.482,42.037c0-11.873,9.659-21.531,21.531-21.531c11.872,0,21.531,9.658,21.531,21.531s-9.659,21.531-21.531,21.531
		C177.142,63.568,167.482,53.91,167.482,42.037z M220.06,337.246c13.945,4.601,28.733,7.587,44.146,8.897
		c0.295,0.025,0.589,0.037,0.88,0.037c5.269,0,9.751-4.039,10.204-9.386c0.48-5.642-3.705-10.605-9.348-11.085
		c-16.222-1.378-31.623-4.808-45.882-10.209v-24.398c39.072,12.881,83.962,12.881,123.036,0v24.383
		c-5.498,2.077-11.205,3.888-17.058,5.385c-5.486,1.403-8.796,6.987-7.393,12.474c1.185,4.634,5.354,7.715,9.927,7.715
		c0.84,0,1.695-0.105,2.547-0.322c4.055-1.037,8.052-2.213,11.978-3.505v84.774c-38.537,14.6-84.503,14.598-123.036,0
		L220.06,337.246L220.06,337.246z M343.095,269.345c-38.539,14.608-84.499,14.608-123.036,0v-51.951l-0.001-0.005
		c2.138,1.072,4.484,2.115,7.068,3.116c14.709,5.688,34.046,8.821,54.451,8.821c22.077,0,45.406-3.814,61.518-11.873V269.345z
		 M281.578,491.494c-28.993,0-53.367-20.162-59.835-47.202l-0.006-0.018c19.06,6.077,39.445,9.128,59.842,9.128
		c20.391,0,40.782-3.053,59.843-9.129l-0.006,0.018C334.945,471.332,310.571,491.494,281.578,491.494z M325.077,150.652
		c10.973,10.982,17.334,25.495,17.964,40.946c-0.426,1.362-3.593,5.708-15.013,10.01c-12.345,4.651-28.842,7.211-46.451,7.211
		c-17.677,0-34.828-2.712-47.051-7.439c-10.957-4.242-14-8.456-14.414-9.777c0.888-21.947,12.972-40.687,30.702-50.84v2.779
		c0,16.96,13.798,30.759,30.759,30.759s30.759-13.798,30.759-30.759v-2.664C316.931,143.539,321.22,146.798,325.077,150.652z
		 M381.941,52.29h-79.86c-5.662,0-10.253,4.59-10.253,10.253v80.999c0,5.654-4.599,10.253-10.253,10.253
		s-10.253-4.599-10.253-10.253V62.543c0-5.663-4.591-10.253-10.253-10.253h-31.288c0.826-3.283,1.27-6.717,1.27-10.253
		c0-3.536-0.444-6.97-1.27-10.253h152.16c39.197,0,71.087,31.89,71.087,71.087v127.462h-20.506V102.871
		C432.522,74.981,409.831,52.29,381.941,52.29z M481.907,275.541c0,3.34-2.717,6.058-6.058,6.058h-6.758
		c-5.662,0-10.253,4.59-10.253,10.253v26.161c0,3.34-2.717,6.058-6.058,6.058h-18.643c-3.34,0-6.057-2.717-6.057-6.058v-26.163
		c0-5.663-4.591-10.253-10.253-10.253h-6.759c-3.34,0-6.057-2.717-6.057-6.058v-18.643c0-3.34,2.717-6.058,6.057-6.058h64.781
		c3.341,0,6.058,2.717,6.058,6.058L481.907,275.541L481.907,275.541z"/>
	<path style="fill:#231F20;" d="M297.007,346.418c0.235,0,0.474-0.008,0.713-0.025l1.088-0.078
		c5.646-0.422,9.882-5.342,9.459-10.989c-0.422-5.646-5.326-9.887-10.989-9.46l-0.963,0.069c-5.649,0.389-9.915,5.282-9.526,10.932
		C287.159,342.278,291.664,346.418,297.007,346.418z"/>
</g>
</svg>