<?xml version="1.0" encoding="iso-8859-1"?>

<!DOCTYPE svg PUBLIC "-//W3C//DTD SVG 1.1//EN" "http://www.w3.org/Graphics/SVG/1.1/DTD/svg11.dtd">
<!-- Uploaded to: SVG Repo, www.svgrepo.com, Generator: SVG Repo Mixer Tools -->
<svg version="1.1" id="_x36_" xmlns="http://www.w3.org/2000/svg" xmlns:xlink="http://www.w3.org/1999/xlink" 
	 viewBox="0 0 512 512"  xml:space="preserve">
<g>
	<path style="fill:#727272;" d="M492.702,146.631L214.74,424.592c-14.202,14.202-34.48,18.741-52.635,13.689
		c-6.15-1.684-12.006-4.465-17.35-8.345l-69.545,69.545c-2.123,2.05-4.393,3.88-6.735,5.417C61.375,509.657,53.103,512,44.83,512
		c-1.684,0-3.44-0.293-5.125-0.513c-2.123-0.293-4.172-0.659-6.222-1.244c-5.491-1.464-10.688-4.1-15.3-7.833
		c0.073,0.146,0.146,0.293,0.293,0.439c-1.318-0.952-2.563-2.05-3.66-3.221c-0.073-0.073-0.147-0.073-0.22-0.147
		c-5.344-5.344-8.931-11.713-10.834-18.448c-0.073-0.219-0.147-0.439-0.147-0.659c-3.88-14.348-0.219-30.307,10.981-41.507
		l69.545-69.545c-0.805-1.171-1.391-2.343-2.123-3.514c-0.293-0.439-0.512-0.878-0.732-1.318c-1.538-2.562-2.855-5.198-3.88-7.979
		c-0.22-0.659-0.439-1.318-0.659-1.977c-2.855-8.492-3.587-17.643-2.05-26.5c1.903-10.542,6.662-20.644,14.714-28.697L228.43,160.32
		L367.447,21.303c15.446-15.446,38.14-19.472,57.32-12.079c0.073,0,0.219,0,0.293,0.073c6.735,2.562,13.031,6.589,18.448,12.006
		l20.79,20.791l28.404,28.404c4.905,4.905,8.638,10.542,11.201,16.545c0,0,0,0,0.073,0.073
		C512.467,106.807,508.734,130.599,492.702,146.631z"/>
	<g>
		<path style="fill:#F1EEDE;" d="M504.122,118.227c-2.415,8.346-6.954,16.252-13.47,22.767h-0.073L212.617,418.956
			c-19.033,19.033-48.974,20.79-69.984,5.344l-69.545,69.545c-8.345,8.346-19.326,12.518-30.307,12.518
			c-5.637-0.073-11.274-1.171-16.545-3.368c-3.514-1.391-6.808-3.294-9.883-5.783c-0.585-0.439-1.098-0.878-1.684-1.391
			c-0.732-0.586-1.464-1.244-2.196-1.977c-3.807-3.806-6.735-8.126-8.711-12.811c-0.22-0.293-0.366-0.659-0.439-0.952
			c-6.515-15.592-3.441-34.26,9.151-46.851l68.813-68.74l0.805-0.805c-1.757-2.343-3.221-4.758-4.539-7.32
			c-0.293-0.586-0.586-1.244-0.806-1.83c-9.37-19.985-5.783-44.509,10.615-60.834L365.324,15.666
			c1.318-1.318,2.635-2.489,4.099-3.66c5.637-4.612,11.933-7.833,18.667-9.81c9.956-2.928,20.644-2.928,30.6,0
			c3.221,0.952,6.369,2.196,9.371,3.734c0.439,0.219,0.878,0.439,1.244,0.659c2.855,1.537,5.564,3.294,8.052,5.418
			c1.464,1.171,2.782,2.342,4.1,3.66l7.32,7.393l17.277,17.204l24.524,24.597h0.073c3.66,3.66,6.735,7.76,9.078,12.152
			c1.757,3.221,3.148,6.515,4.173,10.03c0,0,0,0,0.073,0.073C507.05,97.217,507.05,108.124,504.122,118.227z"/>
		<path style="fill:#FFFFFF;" d="M448.779,23.06c-3.587-3.587-7.613-6.588-11.932-8.931c-3.733-2.123-7.687-3.734-11.786-4.832
			c-0.073-0.073-0.219-0.073-0.293-0.073c-18.009-4.832-38.067-0.22-52.049,13.835L94.683,301.022
			c-13.982,14.055-18.594,34.114-13.836,52.049c1.684,6.369,4.539,12.445,8.565,17.936l-69.545,69.545
			c-12.665,12.664-15.739,31.259-9.224,46.851c0.732,1.903,1.683,3.734,2.782,5.49c0.878,1.464,1.83,2.928,2.928,4.319
			c-0.585-0.439-1.098-0.878-1.684-1.391c-0.732-0.586-1.464-1.244-2.196-1.977c-3.807-3.806-6.735-8.126-8.711-12.811
			c-0.22-0.293-0.366-0.659-0.439-0.952c-6.515-15.592-3.441-34.26,9.151-46.851l68.813-68.74l0.805-0.805
			c-1.757-2.343-3.221-4.758-4.539-7.32c-0.293-0.586-0.586-1.244-0.806-1.83c-9.37-19.985-5.783-44.509,10.615-60.834
			L365.324,15.666c1.318-1.318,2.635-2.489,4.099-3.66c5.637-4.539,11.933-7.833,18.667-9.81c9.956-2.928,20.644-2.928,30.6,0
			c3.221,0.952,6.369,2.196,9.371,3.734c0.512,0.293,1.025,0.512,1.464,0.878c2.782,1.464,5.344,3.221,7.833,5.198
			c1.464,1.171,2.782,2.342,4.1,3.66L448.779,23.06z"/>
		<g>
			<circle style="fill:#C22C5A;" cx="45.661" cy="460.664" r="20.486"/>
			
				<rect x="227.878" y="-2.143" transform="matrix(0.7071 0.7071 -0.7071 0.7071 257.5568 -94.255)" style="fill:#DBDCD5;" width="29.352" height="531.827"/>
			
				<rect x="156.799" y="141.328" transform="matrix(0.7071 0.7071 -0.7071 0.7071 286.9987 -23.1759)" style="fill:#C22C5A;" width="29.352" height="387.044"/>
		</g>
		<g>
			<g>
				
					<rect x="393.752" y="111.458" transform="matrix(0.7071 0.7071 -0.7071 0.7071 202.8176 -259.6746)" style="fill:#4B6A6A;" width="42.224" height="7.056"/>
				
					<rect x="383.308" y="117.257" transform="matrix(0.7071 0.7071 -0.7071 0.7071 200.5754 -242.6608)" style="fill:#4B6A6A;" width="19.795" height="7.056"/>
				
					<rect x="369.578" y="130.987" transform="matrix(0.7071 0.7071 -0.7071 0.7071 206.2636 -228.9319)" style="fill:#4B6A6A;" width="19.795" height="7.056"/>
				
					<rect x="352.564" y="152.646" transform="matrix(0.7071 0.7071 -0.7071 0.7071 219.8785 -218.4861)" style="fill:#4B6A6A;" width="42.224" height="7.056"/>
				
					<rect x="311.375" y="193.835" transform="matrix(0.7071 0.7071 -0.7071 0.7071 236.9399 -177.2978)" style="fill:#4B6A6A;" width="42.224" height="7.056"/>
				
					<rect x="342.119" y="158.446" transform="matrix(0.7071 0.7071 -0.7071 0.7071 217.6363 -201.4722)" style="fill:#4B6A6A;" width="19.795" height="7.056"/>
				
					<rect x="328.389" y="172.176" transform="matrix(0.7071 0.7071 -0.7071 0.7071 223.3244 -187.7431)" style="fill:#4B6A6A;" width="19.795" height="7.056"/>
				
					<rect x="300.93" y="199.635" transform="matrix(0.7071 0.7071 -0.7071 0.7071 234.6957 -160.2834)" style="fill:#4B6A6A;" width="19.795" height="7.056"/>
				
					<rect x="287.201" y="213.364" transform="matrix(0.7071 0.7071 -0.7071 0.7071 240.3841 -146.5541)" style="fill:#4B6A6A;" width="19.795" height="7.056"/>
			</g>
			<circle style="fill:#4B6A6A;" cx="430.84" cy="130.219" r="8.024"/>
			<circle style="fill:#4B6A6A;" cx="348.426" cy="212.632" r="8.024"/>
			<g>
				
					<rect x="267.363" y="237.847" transform="matrix(0.7071 0.7071 -0.7071 0.7071 255.1703 -133.2857)" style="fill:#4B6A6A;" width="42.224" height="7.056"/>
				
					<rect x="226.175" y="279.036" transform="matrix(0.7071 0.7071 -0.7071 0.7071 272.2318 -92.0971)" style="fill:#4B6A6A;" width="42.224" height="7.056"/>
				
					<rect x="256.918" y="243.647" transform="matrix(0.7071 0.7071 -0.7071 0.7071 252.9262 -116.2715)" style="fill:#4B6A6A;" width="19.795" height="7.056"/>
				
					<rect x="243.189" y="257.376" transform="matrix(0.7071 0.7071 -0.7071 0.7071 258.6146 -102.542)" style="fill:#4B6A6A;" width="19.795" height="7.056"/>
				
					<rect x="215.73" y="284.835" transform="matrix(0.7071 0.7071 -0.7071 0.7071 269.9884 -75.083)" style="fill:#4B6A6A;" width="19.795" height="7.056"/>
				
					<rect x="202" y="298.565" transform="matrix(0.7071 0.7071 -0.7071 0.7071 275.6741 -61.3537)" style="fill:#4B6A6A;" width="19.795" height="7.056"/>
				
					<rect x="184.986" y="320.224" transform="matrix(0.7071 0.7071 -0.7071 0.7071 289.2927 -50.9084)" style="fill:#4B6A6A;" width="42.224" height="7.056"/>
				
					<rect x="143.797" y="361.413" transform="matrix(0.7071 0.7071 -0.7071 0.7071 306.3523 -9.7202)" style="fill:#4B6A6A;" width="42.224" height="7.056"/>
				
					<rect x="174.541" y="326.024" transform="matrix(0.7071 0.7071 -0.7071 0.7071 287.0506 -33.894)" style="fill:#4B6A6A;" width="19.795" height="7.056"/>
				
					<rect x="160.812" y="339.753" transform="matrix(0.7071 0.7071 -0.7071 0.7071 292.7349 -20.1653)" style="fill:#4B6A6A;" width="19.795" height="7.056"/>
				
					<rect x="133.353" y="367.212" transform="matrix(0.7071 0.7071 -0.7071 0.7071 304.1114 7.2948)" style="fill:#4B6A6A;" width="19.795" height="7.056"/>
				
					<rect x="119.623" y="380.942" transform="matrix(0.7071 0.7071 -0.7071 0.7071 309.7971 21.0237)" style="fill:#4B6A6A;" width="19.795" height="7.056"/>
			</g>
			<circle style="fill:#4B6A6A;" cx="263.262" cy="297.796" r="8.024"/>
			<circle style="fill:#4B6A6A;" cx="180.848" cy="380.21" r="8.024"/>
		</g>
		<circle style="fill:#CE3D83;" cx="43.715" cy="453.53" r="8.255"/>
		<path style="opacity:0.1;fill:#050101;" d="M490.611,140.973L212.604,418.98c-18.991,18.991-48.931,20.738-69.945,5.293
			l-69.564,69.565c-8.337,8.337-19.32,12.505-30.32,12.505c-10.983-0.017-21.966-4.185-30.286-12.505L466.033,40.292l24.578,24.578
			C511.539,85.798,511.539,120.044,490.611,140.973z"/>
	</g>
</g>
</svg>